<svg width="159" height="157" viewBox="0 0 159 157" fill="none" xmlns="http://www.w3.org/2000/svg">
<g clip-path="url(#clip0_923_2)">
<path d="M81.1 130.3H89.5V132.2H86.4V140.6H84.2V132.2H81V130.3H81.1ZM80.4 130.3H77.6L73.6 134.5V130.3H71.4V140.6H73.6V137.3L74.9 136L78 140.6H80.8L76.5 134.3L80.4 130.3ZM52.9 142H56.6V140.4H54.8V130.5H56.6V128.9H52.9V142ZM64.5 137.4L62.1 130.4H59V140.7H61.1V133.5L63.6 140.7H65.4L67.9 133.4V140.7H70V130.4H66.9L64.5 137.4ZM40.6 88.5C42.5 94.2 45.5 99 49.3 103.2C53.1 107.4 57.7 110.7 63.1 113.1C68.5 115.5 74.8 116.7 81.5 116.7C87 116.7 92 115.8 96.6 114.2C101.2 112.6 105.1 110.2 108.6 107C112 103.9 114.7 100 116.8 95.5C118.9 91 120.2 85.9 120.7 80.4H101.7C101.1 86.2 99 91 95.7 94.8C92.3 98.5 87.6 100.3 81.6 100.3C77.1 100.3 73.4 99.4 70.4 97.8C67.3 96.2 64.9 93.8 62.9 90.9C61 88.1 59.6 84.9 58.7 81.3C57.8 77.7 57.4 74.1 57.4 70.4C57.4 66.5 57.8 62.8 58.7 59C59.6 55.4 60.9 52.1 62.9 49.1C64.8 46.3 67.4 43.9 70.4 42.2C73.5 40.6 77.3 39.7 81.6 39.7C84 39.7 86.4 40.1 88.5 40.9C90.7 41.6 92.7 42.8 94.5 44.2C96.3 45.5 97.6 47.2 98.8 49.1C100 51 100.7 53 101 55.2H120C119.4 50 118.1 45.5 115.8 41.4C113.5 37.3 110.7 34.1 107.3 31.4C103.9 28.7 100 26.6 95.5 25.3C91.2 24 86.5 23.2 81.6 23.2C74.7 23.2 68.6 24.4 63.2 26.8C57.8 29.2 53.2 32.5 49.4 36.8C45.7 41 42.8 46.1 40.7 51.8C38.8 57.5 37.7 63.8 37.7 70.4C37.6 76.8 38.5 82.9 40.6 88.5ZM101.8 130.5H103.6V140.4H101.8V142H105.5V128.8H101.8V130.5ZM94.9 136.8H97.1C97.1 137.5 96.8 138 96.4 138.4C96 138.8 95.4 139 94.6 139C94.2 139 93.7 138.9 93.3 138.7C93 138.6 92.7 138.3 92.4 138C92.3 137.7 92 137.3 92 137C91.9 136.6 91.9 136.1 91.9 135.8C91.9 135.4 91.9 134.9 92 134.5C92.1 134.1 92.3 133.8 92.4 133.3C92.5 132.8 92.8 132.7 93.3 132.6C93.6 132.5 94 132.3 94.6 132.3C95.2 132.3 95.6 132.4 95.9 132.7C96.3 133 96.5 133.4 96.6 134H98.7C98.7 133.4 98.6 133 98.3 132.5C98 132.1 97.7 131.6 97.3 131.3C96.9 131 96.4 130.7 96 130.6C95.6 130.5 95 130.3 94.5 130.3C93.8 130.3 93 130.4 92.4 130.7C91.8 131 91.2 131.3 90.8 131.9C90.4 132.3 90.1 132.9 89.8 133.5C89.5 134.1 89.5 134.8 89.5 135.6C89.5 136.3 89.6 137.1 89.8 137.7C90.1 138.3 90.4 138.9 90.8 139.3C91.2 139.7 91.7 140.2 92.4 140.5C93 140.8 93.7 140.9 94.5 140.9C94.9 140.9 95.5 140.8 96 140.6C96.5 140.4 96.9 140 97.3 139.6L97.6 140.8H99.1V135.3H94.9V136.8ZM158.5 0V157H0V0H158.5ZM3.1 3V154H155.4V3H3.1Z" fill="black"/>
</g>
<defs>
<clipPath id="clip0_923_2">
<rect width="158.5" height="157" fill="white"/>
</clipPath>
</defs>
</svg>
